<?xml version="1.0" encoding="UTF-8" standalone="no"?>
<!DOCTYPE svg PUBLIC "-//W3C//DTD SVG 1.1//EN" "http://www.w3.org/Graphics/SVG/1.1/DTD/svg11.dtd"

>
<!-- Created with Vectornator (http://vectornator.io/) -->
<svg height="100%" stroke-miterlimit="10" style="fill-rule:nonzero;clip-rule:evenodd;stroke-linecap:round;stroke-linejoin:round;" version="1.1" viewBox="0 0 795 161" width="100%">
<defs>
<clipPath id="TextBounds">
<rect height="168.339" width="635.978" x="14.2881" y="-15.1885"/>
</clipPath>
</defs>
<g id="Untitled" vectornator:layerName="Untitled">
<g fill="#000000" opacity="1" stroke="none">
<path clip-path="url(#TextBounds)" d="M19.6847 80.1393C21.6112 81.8088 23.9229 82.5794 25.0787 82.7078L25.0787 90.7988C25.0787 101.202 25.5924 109.293 27.0052 112.375C28.9316 116.87 33.8119 119.181 38.949 119.181C39.848 119.181 40.6186 119.181 41.5176 119.053C41.0039 113.531 40.747 100.046 40.747 87.4597L40.747 81.552C50.5076 79.4971 61.1671 75.1305 67.8454 68.4523C74.1384 62.2877 78.2481 54.8389 78.2481 47.39C78.2481 40.9686 74.909 34.0335 66.9464 28.6395C61.0387 24.6582 49.6086 22.4749 38.8206 22.4749C25.3356 22.4749 12.1075 25.6856 6.97032 32.3639C5.17232 34.6756 4.53018 36.9873 4.53018 39.0422C4.53018 43.1519 7.22718 47.1332 10.3095 48.1606C11.979 44.5646 18.7857 39.5559 27.1336 35.8315C26.2346 53.9399 25.7209 64.7278 25.3356 75.0021L23.7944 75.0021C21.7396 75.0021 20.07 74.8737 19.171 74.8737C17.8867 74.8737 17.5015 75.5158 17.5015 76.2864C17.5015 77.4423 18.4005 78.9834 19.6847 80.1393ZM41.0039 70.3787C41.1323 64.5994 41.3891 58.8201 41.3891 54.0683C41.3891 45.2067 40.6186 36.3452 39.2059 33.1345L38.6921 31.9786C41.7744 31.208 44.8567 30.8227 47.8106 30.8227C56.5437 30.8227 63.4788 34.6756 63.4788 43.5372C63.4788 50.6007 60.0113 58.4349 55.2594 62.9298C50.636 67.2964 45.6273 70.1218 40.8754 71.9198C40.8754 71.4061 41.0039 70.8924 41.0039 70.3787Z" fill-rule="evenodd"/>
<path clip-path="url(#TextBounds)" d="M133.729 111.091C130.39 111.091 129.876 106.467 129.876 102.614C129.876 98.3761 130.39 93.239 130.775 88.8724C131.161 83.8637 131.674 78.855 131.674 74.36C131.674 70.8924 131.289 67.8101 130.518 65.1131C128.72 59.5907 122.042 54.8389 115.749 54.8389C113.437 54.8389 111.126 55.481 109.328 56.8937C103.548 61.0034 97.1271 82.7078 96.4849 85.148C97.1271 76.9285 97.3839 71.0208 97.7692 66.269C103.292 56.1231 109.071 45.4636 109.071 35.8315C109.071 34.4187 108.942 32.8776 108.686 31.4649C106.759 22.218 100.081 16.9525 94.0448 16.9525C90.3204 16.9525 86.9812 18.8789 85.4401 22.7318C82.4862 30.0522 81.7157 48.1606 81.7157 67.168C81.7157 85.0195 82.3578 102.743 82.8715 107.495C83.6421 113.659 89.5498 118.668 92.6321 118.668C93.6595 118.668 94.3016 118.026 94.4301 116.741C94.6869 111.733 97.3839 101.202 101.494 89.1292C105.86 76.4148 111.126 64.7278 114.08 64.5994C116.134 64.5994 116.648 67.5533 116.648 71.5346C116.648 74.8737 116.263 78.855 116.134 82.8363C115.878 87.4597 115.492 92.9821 115.492 97.9908C115.492 102.357 115.878 106.339 116.905 109.036C119.088 114.558 125.638 119.695 132.316 119.695C133.729 119.695 135.27 119.438 136.683 118.925C142.848 116.613 147.471 109.421 148.884 103.513C149.012 102.871 149.141 102.357 149.141 101.715C149.141 99.1467 147.856 97.3487 145.93 96.835C143.875 103.642 138.096 111.091 133.729 111.091ZM94.5585 58.9486C94.5585 59.077 93.9164 50.986 93.9164 44.3077C93.9164 37.7579 94.5585 34.6756 95.0722 32.8776C95.5859 31.208 96.8702 30.1806 98.1545 30.1806C99.6956 30.1806 101.622 31.7217 101.622 35.0609C101.622 44.0509 98.4114 51.3713 94.5585 58.9486Z" fill-rule="evenodd"/>
<path clip-path="url(#TextBounds)" d="M206.291 85.0195C208.218 82.7078 208.988 80.0108 208.988 78.3413C208.988 75.3874 206.933 73.3326 205.264 72.3051C204.108 75.6443 201.668 78.2128 198.586 80.0108C196.017 81.552 192.935 82.7078 189.724 83.35C189.467 77.4423 188.44 71.5346 186.899 66.6543C184.844 60.6181 180.606 55.9947 174.184 53.5546C171.487 52.5271 168.533 51.885 165.708 51.885C163.396 51.885 161.213 52.2703 159.158 53.2977C156.718 53.4261 154.149 54.3251 151.581 56.38C145.159 61.1319 141.435 72.562 141.435 84.5058C141.435 92.2115 142.976 100.431 146.7 106.981C150.553 114.044 160.571 118.668 169.175 118.668C172.515 118.668 175.725 117.897 178.165 116.356C185.101 111.99 188.054 102.871 189.21 92.9821C196.531 91.9547 202.438 89.5145 206.291 85.0195ZM166.992 79.4971C163.525 76.0295 161.341 71.9198 161.341 68.067C161.341 66.0121 161.983 64.0857 163.396 62.4161C164.424 61.3887 165.579 60.875 166.864 60.875C170.46 60.875 174.955 64.471 177.01 69.6081C178.037 72.3051 178.551 76.0295 178.551 79.6255C178.551 81.1667 178.422 82.7078 178.294 83.9921C174.569 83.8637 169.946 82.3225 166.992 79.4971ZM158.002 85.6617C160.828 87.845 163.781 89.5145 166.992 90.6704C170.203 91.8262 173.542 92.5968 176.881 93.1105C175.982 97.2202 174.826 101.202 173.414 104.284C172.001 107.366 170.46 109.421 168.919 110.063C168.405 110.32 167.891 110.448 167.377 110.448C164.424 110.448 161.727 106.596 160.057 100.816C158.773 96.5781 158.002 91.3125 158.002 85.6617Z" fill-rule="evenodd"/>
<path clip-path="url(#TextBounds)" d="M215.667 118.668C223.501 118.668 230.693 114.558 233.903 105.953C234.545 104.284 234.674 103 234.674 101.972C234.674 98.3761 232.491 96.7065 231.078 96.5781C229.794 104.027 223.372 110.962 218.235 110.962C217.079 110.962 216.052 110.705 215.153 109.935C212.841 108.137 211.814 101.972 211.814 93.6242C211.814 86.3038 212.456 77.4423 213.612 67.168C214.125 64.5994 214.511 61.9024 214.768 59.3339C217.721 59.2054 220.418 58.9486 222.345 58.5633C226.711 57.7927 228.252 56.2516 228.252 54.1967C228.252 53.5546 228.124 52.784 227.867 52.1419C226.454 52.3987 224.4 52.5271 221.96 52.5271C219.905 52.5271 217.721 52.3987 215.281 52.3987C215.41 50.087 215.41 48.0322 215.41 46.1057C215.41 42.6382 215.281 40.3264 215.024 39.299C212.97 30.6943 208.218 27.0983 204.493 27.0983C203.209 27.0983 202.053 27.4836 201.283 28.2542C199.998 32.2355 199.998 35.9599 199.998 42.1244C199.998 46.3626 199.998 49.188 199.87 52.6556C196.402 52.784 193.448 53.0409 191.65 53.5546C190.88 53.8114 190.623 54.7104 190.623 55.7379C190.623 57.279 191.137 58.9486 191.137 58.9486C191.779 58.9486 195.246 59.2054 199.741 59.3339C199.613 61.0034 199.485 63.1867 199.485 64.5994C198.971 74.8737 198.586 84.8911 198.586 92.5968C198.586 99.1467 198.842 103.77 199.741 106.339C202.053 113.017 206.42 118.668 215.667 118.668Z" fill-rule="evenodd"/>
<path clip-path="url(#TextBounds)" d="M291.953 85.0195C293.879 82.7078 294.65 80.0108 294.65 78.3413C294.65 75.3874 292.595 73.3326 290.926 72.3051C289.77 75.6443 287.33 78.2128 284.247 80.0108C281.679 81.552 278.596 82.7078 275.386 83.35C275.129 77.4423 274.101 71.5346 272.56 66.6543C270.505 60.6181 266.267 55.9947 259.846 53.5546C257.149 52.5271 254.195 51.885 251.37 51.885C249.058 51.885 246.875 52.2703 244.82 53.2977C242.38 53.4261 239.811 54.3251 237.242 56.38C230.821 61.1319 227.097 72.562 227.097 84.5058C227.097 92.2115 228.638 100.431 232.362 106.981C236.215 114.044 246.232 118.668 254.837 118.668C258.176 118.668 261.387 117.897 263.827 116.356C270.762 111.99 273.716 102.871 274.872 92.9821C282.192 91.9547 288.1 89.5145 291.953 85.0195ZM252.654 79.4971C249.186 76.0295 247.003 71.9198 247.003 68.067C247.003 66.0121 247.645 64.0857 249.058 62.4161C250.085 61.3887 251.241 60.875 252.525 60.875C256.121 60.875 260.616 64.471 262.671 69.6081C263.699 72.3051 264.212 76.0295 264.212 79.6255C264.212 81.1667 264.084 82.7078 263.956 83.9921C260.231 83.8637 255.608 82.3225 252.654 79.4971ZM243.664 85.6617C246.489 87.845 249.443 89.5145 252.654 90.6704C255.865 91.8262 259.204 92.5968 262.543 93.1105C261.644 97.2202 260.488 101.202 259.075 104.284C257.663 107.366 256.121 109.421 254.58 110.063C254.067 110.32 253.553 110.448 253.039 110.448C250.085 110.448 247.388 106.596 245.719 100.816C244.434 96.5781 243.664 91.3125 243.664 85.6617Z" fill-rule="evenodd"/>
<path clip-path="url(#TextBounds)" d="M323.418 136.262C321.62 137.418 319.822 138.06 318.152 138.06C314.942 138.06 312.502 136.134 312.502 133.565C312.502 132.153 313.657 131.125 314.685 130.355C317.253 128.428 322.134 126.245 327.271 123.676L329.583 122.521C328.94 128.043 327.528 133.437 323.418 136.262ZM361.304 103.899C362.589 102.614 362.974 100.945 362.974 99.4035C362.974 97.3487 361.946 95.5507 359.892 94.3948C357.837 96.835 351.929 100.945 345.379 105.054C346.15 97.9908 346.535 86.5607 346.535 76.8001C346.535 71.2777 346.535 66.269 346.278 63.0583C346.15 61.3887 344.737 60.6181 343.453 60.6181C339.086 60.6181 331.894 65.6268 331.894 69.2228C331.894 76.5433 330.096 83.7353 327.399 89.3861C323.932 96.5781 319.051 101.715 314.556 101.715C306.979 101.715 300.815 91.6978 300.815 70.5071C300.815 56.7653 303.126 44.5646 307.108 36.3452C310.318 29.6669 314.556 25.6856 319.565 25.6856C320.593 25.6856 321.748 25.814 322.776 26.1993C327.142 27.4836 329.326 31.8502 329.326 36.7305C329.326 41.2254 327.785 46.491 325.473 49.7017C326.886 51.6281 329.197 52.9124 332.665 52.9124C335.49 52.9124 338.701 51.885 341.013 49.3164C343.71 46.2342 344.737 42.6382 344.737 39.299C344.737 34.5472 342.811 29.5385 339.857 26.5846C333.307 20.0348 327.785 17.723 319.308 17.723C310.575 17.723 301.2 21.5759 294.393 30.9512C286.816 41.2254 283.091 55.2241 283.091 68.5807C283.091 77.4423 284.633 86.1754 287.715 93.4958C290.283 99.6604 293.751 104.669 298.374 108.008C301.842 110.705 305.695 111.733 309.162 111.733C318.538 111.733 327.528 103.77 331.766 92.34C331.766 96.7065 331.124 107.366 330.61 113.402C330.61 113.402 326.243 115.586 319.18 118.539C309.034 122.906 299.53 127.144 299.53 133.18C299.53 140.501 309.548 145.252 319.694 145.252C324.574 145.252 329.711 144.097 333.307 141.4C341.655 135.107 343.453 126.245 344.48 115.714C351.672 112.118 357.965 107.623 361.304 103.899Z" fill-rule="evenodd"/>
<path clip-path="url(#TextBounds)" d="M411.391 109.935C409.465 109.036 408.823 104.412 408.823 98.3761C408.823 90.9272 409.722 81.0383 410.492 73.7178C410.878 69.865 411.135 66.6543 411.135 65.37C411.006 59.7191 403.814 55.0957 399.833 55.0957C398.42 55.0957 397.521 55.7379 397.393 57.0221C397.264 58.9486 397.136 60.2329 396.879 61.6456C393.026 56.1231 386.862 53.0409 380.569 53.0409C378.257 53.0409 375.945 53.4261 373.762 54.3251C363.102 58.5633 357.837 74.36 357.837 87.4597L357.837 88.8724C358.094 97.0918 360.405 104.926 363.873 110.32C366.955 115.2 371.193 118.154 375.56 118.154C376.587 118.154 377.743 118.026 378.899 117.64C386.99 114.815 393.155 96.7065 394.953 90.542C394.953 91.0557 394.824 91.5694 394.824 92.0831C394.696 94.138 394.567 95.8075 394.567 97.4771C394.567 100.688 394.953 103.899 396.108 109.036C396.622 111.219 398.292 113.274 400.347 114.815C403.044 116.87 407.41 118.539 410.492 118.539C418.455 118.539 424.876 111.604 427.06 105.183C427.317 104.155 427.445 103.256 427.445 102.357C427.445 99.0182 425.647 97.3487 424.234 96.9634C423.078 101.33 417.813 110.448 413.189 110.448C412.547 110.448 412.034 110.192 411.391 109.935ZM378 106.852C376.074 106.852 374.276 100.688 374.276 94.138C374.276 83.6068 377.358 68.8376 382.623 63.3151C384.165 61.774 385.706 61.1319 387.118 61.1319C391.357 61.1319 394.696 66.9111 395.081 71.0208C392.769 81.4235 388.66 93.239 384.55 100.303C382.238 104.284 379.926 106.852 378 106.852Z" fill-rule="evenodd"/>
<path clip-path="url(#TextBounds)" d="M419.868 80.7814C421.28 95.5507 422.565 107.109 426.418 112.375C429.757 116.87 434.38 118.925 439.26 118.925C441.315 118.925 443.37 118.539 445.425 117.769C448.379 116.613 453.002 112.375 455.442 108.265C456.341 106.724 456.984 105.311 456.984 103.128C456.984 99.532 454.929 97.2202 453.516 96.9634C453.002 99.7888 451.204 103.77 448.764 106.724C446.966 108.907 444.911 110.577 442.856 110.577C442.214 110.577 441.572 110.448 440.93 110.063C436.435 107.366 435.664 97.3487 435.664 85.148L435.664 81.9373C440.673 68.067 445.04 55.0957 445.04 42.2529C445.04 35.4462 442.856 27.2267 438.233 22.218C435.664 19.521 432.325 17.723 428.216 17.723C424.748 17.723 421.794 19.9063 420.638 24.7866C419.226 30.1806 418.712 40.5833 418.712 51.3713C418.712 61.5171 419.097 72.562 419.868 80.7814ZM432.454 69.4797C431.555 63.3151 431.041 55.8663 431.041 47.2616C431.041 40.7117 431.426 35.703 433.866 35.703C436.435 35.703 437.334 39.5559 437.334 44.1793C437.334 53.2977 432.454 69.4797 432.454 69.4797Z" fill-rule="evenodd"/>
<path clip-path="url(#TextBounds)" d="M450.562 80.7814C451.975 95.5507 453.259 107.109 457.112 112.375C460.451 116.87 465.075 118.925 469.955 118.925C472.01 118.925 474.064 118.539 476.119 117.769C479.073 116.613 483.697 112.375 486.137 108.265C487.036 106.724 487.678 105.311 487.678 103.128C487.678 99.532 485.623 97.2202 484.21 96.9634C483.697 99.7888 481.899 103.77 479.458 106.724C477.66 108.907 475.606 110.577 473.551 110.577C472.909 110.577 472.266 110.448 471.624 110.063C467.129 107.366 466.359 97.3487 466.359 85.148L466.359 81.9373C471.367 68.067 475.734 55.0957 475.734 42.2529C475.734 35.4462 473.551 27.2267 468.927 22.218C466.359 19.521 463.02 17.723 458.91 17.723C455.442 17.723 452.489 19.9063 451.333 24.7866C449.92 30.1806 449.406 40.5833 449.406 51.3713C449.406 61.5171 449.792 72.562 450.562 80.7814ZM463.148 69.4797C462.249 63.3151 461.735 55.8663 461.735 47.2616C461.735 40.7117 462.121 35.703 464.561 35.703C467.129 35.703 468.028 39.5559 468.028 44.1793C468.028 53.2977 463.148 69.4797 463.148 69.4797Z" fill-rule="evenodd"/>
<path clip-path="url(#TextBounds)" d="M516.446 78.5981C520.941 75.0021 523.381 70.764 523.381 66.1406C523.381 64.0857 522.996 62.0309 521.968 59.976C519.657 54.8389 512.208 50.986 504.502 50.986C498.081 50.986 491.402 53.683 486.779 60.4897C482.155 67.168 479.972 76.4148 479.972 85.4048C479.972 94.2664 482.027 102.871 486.65 108.65C492.43 115.971 500.778 118.539 508.355 118.539C516.061 118.539 523.253 115.586 528.518 110.705C532.243 107.238 534.811 102.871 535.71 97.8624C535.839 97.3487 535.839 96.835 535.839 96.3212C535.839 92.9821 534.041 90.4135 531.6 90.4135C530.701 95.8075 528.004 100.816 524.408 104.412C520.812 108.008 516.317 110.192 511.951 110.192C508.612 110.192 505.144 108.779 502.19 105.568C497.824 101.073 496.283 93.1105 496.283 84.8911C503.218 84.8911 510.923 82.9647 516.446 78.5981ZM506.814 57.4074C509.511 57.4074 511.822 60.7466 511.822 64.3426C511.822 67.8101 509.768 72.4336 505.915 75.1305C502.704 77.1854 499.75 78.2128 496.539 78.855C497.695 68.5807 501.805 57.4074 506.814 57.4074Z" fill-rule="evenodd"/>
<path clip-path="url(#TextBounds)" d="M542.774 102.614C542.774 99.2751 544.058 94.2664 545.856 89.643C547.269 85.9185 548.938 82.3225 550.608 79.6255C554.075 84.8911 560.368 88.3587 567.56 88.3587C574.881 88.3587 580.917 84.3774 580.917 77.8275C580.917 74.7453 579.504 72.8188 577.321 72.562C576.294 76.6717 572.441 80.2677 568.331 80.2677C567.946 80.2677 567.432 80.2677 567.047 80.1393C560.882 78.855 558.57 72.1767 558.57 72.1767C558.57 72.1767 563.836 66.1406 563.836 62.673C563.836 57.5359 558.314 53.1693 554.204 53.1693C553.176 53.1693 552.277 53.4261 551.507 54.0683C549.58 55.6094 548.168 58.4349 547.269 62.1593C546.883 63.8288 546.755 65.4984 546.755 66.7827C546.755 67.6817 546.883 68.7091 547.012 69.6081C545.728 72.0483 544.315 75.6443 543.159 79.4971L543.159 74.4884C543.159 69.0944 542.902 63.8288 540.334 59.976C538.279 56.6369 534.94 54.3251 531.215 54.3251C530.316 54.3251 529.417 54.4536 528.518 54.7104C528.775 56.1231 529.032 58.178 529.032 60.875C529.032 63.8288 528.903 67.5533 528.775 71.663C528.647 76.6717 528.518 83.7353 528.518 89.0008C528.518 98.3761 529.032 107.238 530.573 111.091C531.857 114.558 536.224 118.026 540.334 118.026C541.361 118.026 542.388 117.897 543.287 117.384C542.902 112.375 542.774 107.88 542.774 102.614Z" fill-rule="evenodd"/>
<path clip-path="url(#TextBounds)" d="M623.298 117.769C628.307 115.072 634.985 111.861 638.581 107.238C639.866 105.568 640.508 103.256 640.508 101.073C640.508 98.633 639.352 96.0644 637.169 95.4222C635.371 99.1467 630.105 104.027 624.326 108.137C624.839 102.486 625.096 97.9908 625.225 92.34C625.482 85.2764 625.482 78.3413 625.482 72.4336C625.482 61.9024 614.694 52.9124 610.841 52.9124C610.07 52.9124 609.556 53.2977 609.556 54.1967C609.556 56.7653 606.346 68.966 602.364 80.7814C599.924 88.1018 597.099 95.1654 594.53 99.6604C592.732 102.743 591.191 104.541 589.65 104.541C585.926 104.541 585.797 98.8898 585.797 96.3212C585.797 91.3125 586.311 86.946 586.825 82.451C587.338 78.5981 587.724 74.36 587.724 70.3787C587.724 68.7091 587.595 67.168 587.467 65.6268C586.568 58.178 579.376 53.683 573.853 53.683C573.211 53.683 572.569 53.683 572.055 53.8114L572.055 57.6643C572.055 61.5171 571.799 66.7827 571.413 72.3051C571.028 78.4697 570.643 85.6617 570.643 91.6978C570.643 94.6517 570.771 97.8624 571.028 100.559C572.312 112.118 581.302 118.539 588.366 118.539C591.705 118.539 593.888 116.87 595.815 114.815C599.539 110.705 602.878 103.642 605.447 96.5781C608.529 88.1018 610.712 78.3413 611.354 75.3874C610.841 81.0383 610.841 91.5694 610.199 101.073L609.043 116.741C603.007 119.824 596.585 122.906 592.347 126.117C589.265 128.557 587.21 130.997 587.21 133.565C587.21 137.547 590.806 141.4 594.402 143.069C596.842 144.225 600.438 144.867 603.007 144.867C608.657 144.867 614.051 142.812 616.62 139.473C620.473 134.593 622.656 121.622 623.298 117.769ZM606.859 132.666C605.447 135.877 602.364 137.29 599.924 137.29C597.998 137.29 596.2 136.391 596.2 134.593C596.2 133.309 597.099 132.153 598.512 130.997C600.823 129.07 604.548 127.144 608.401 125.346C608.015 128.814 607.502 131.254 606.859 132.666Z" fill-rule="evenodd"/>
</g>
</g>
</svg>
